HIERARCHY
ROOT hip
{
	OFFSET 0.000000 0.000000 0.000000 
	CHANNELS 6 Xposition Yposition Zposition Zrotation Xrotation Yrotation
	JOINT abdomen
	{
		OFFSET 0.000000 3.402643 0.000000 
		CHANNELS 3 Zrotation Xrotation Yrotation
		JOINT chest
		{
			OFFSET 0.000000 8.438565 -0.680529 
			CHANNELS 3 Zrotation Xrotation Yrotation
			JOINT neck
			{
				OFFSET 0.000000 10.207942 -0.272212 
				CHANNELS 3 Zrotation Xrotation Yrotation
				JOINT head
				{
					OFFSET 0.000000 3.130431 0.000000 
					CHANNELS 3 Zrotation Xrotation Yrotation
					End Site
					{
						OFFSET 0.000000 3.130435 0.000000 
					}
				}
			}
			JOINT lCollar
			{
				OFFSET 3.470700 6.669187 -0.816635 
				CHANNELS 3 Zrotation Xrotation Yrotation
				JOINT lShldr
				{
					OFFSET 3.198488 0.000000 0.000000 
					CHANNELS 3 Zrotation Xrotation Yrotation
					JOINT lForeArm
					{
						OFFSET 10.139888 0.000000 0.000000 
						CHANNELS 3 Zrotation Xrotation Yrotation
						JOINT lHand
						{
							OFFSET 8.370511 0.000000 0.000000 
							CHANNELS 3 Zrotation Xrotation Yrotation
							End Site
							{
								OFFSET 4.083176 0.000000 0.000000 
							}
						}
					}
				}
			}
			JOINT rCollar
			{
				OFFSET -3.470700 6.669187 -0.816635 
				CHANNELS 3 Zrotation Xrotation Yrotation
				JOINT rShldr
				{
					OFFSET -3.198488 0.000000 0.000000 
					CHANNELS 3 Zrotation Xrotation Yrotation
					JOINT rForeArm
					{
						OFFSET -10.139888 0.000000 0.000000 
						CHANNELS 3 Zrotation Xrotation Yrotation
						JOINT rHand
						{
							OFFSET -8.370511 0.000000 0.000000 
							CHANNELS 3 Zrotation Xrotation Yrotation
							End Site
							{
								OFFSET -4.083176 0.000000 0.000000 
							}
						}
					}
				}
			}
		}
	}
	JOINT lThigh
	{
		OFFSET 5.308129 -1.633274 1.361059 
		CHANNELS 3 Zrotation Xrotation Yrotation
		JOINT lShin
		{
			OFFSET -2.041588 -20.007561 0.000000 
			CHANNELS 3 Zrotation Xrotation Yrotation
			JOINT lFoot
			{
				OFFSET 0.000000 -19.190928 -1.224953 
				CHANNELS 3 Zrotation Xrotation Yrotation
				End Site
				{
					OFFSET 0.000000 -2.449906 4.627600 
				}
			}
		}
	}
	JOINT rThigh
	{
		OFFSET -5.308129 -1.633274 1.361059 
		CHANNELS 3 Zrotation Xrotation Yrotation
		JOINT rShin
		{
			OFFSET 2.041588 -20.007561 0.000000 
			CHANNELS 3 Zrotation Xrotation Yrotation
			JOINT rFoot
			{
				OFFSET 0.000000 -19.190928 -1.224953 
				CHANNELS 3 Zrotation Xrotation Yrotation
				End Site
				{
					OFFSET 0.000000 -2.449906 4.627600 
				}
			}
		}
	}
}
MOTION
Frames: 17
Frame Time: 0.033333
0.019959 28.043203 -16.492264 -0.391818 -4.472576 -0.811805 -0.233905 23.290840 4.594442 -7.959909 -13.922630 -9.866390 0.000000 -0.000003 6.767580 0.713261 1.845561 -13.616600 -3.169640 -0.245998 -4.027147 -60.468502 14.159878 -19.572857 -13.905028 -2.810302 -40.892426 34.205219 26.832329 -29.297215 10.582378 -7.915159 -5.327716 57.524693 15.074610 4.440199 10.254690 3.478538 64.110703 -29.580603 52.171314 38.433372 37.823387 -78.051292 36.904408 -168.746002 80.086937 160.225861 2.851889 -14.815146 3.169420 -40.901680 -76.974960 -41.886745 171.035629 80.620613 -162.589554 -4.475953 -14.652793 -1.676565 
-0.031460 27.945679 -16.827469 -0.400650 -2.060520 -0.160959 -0.539961 22.723703 0.364750 -7.535069 -13.548500 -10.065925 0.000001 -0.000007 6.445313 0.654345 -0.693314 -12.912003 -5.447726 -0.264844 -2.644351 -61.518166 16.047125 -17.060873 -11.073204 1.025248 -41.594883 44.150948 34.806793 -32.014709 10.826352 -8.129721 -4.090734 61.251503 17.140358 6.234978 8.641615 7.677382 64.073990 -40.819073 46.880440 36.147125 48.048759 -80.355530 47.648376 -166.030579 81.345375 157.546982 3.148142 -12.824699 2.662081 -51.767860 -78.921501 -52.860680 168.675156 81.617020 -160.352417 -4.217604 -13.049098 -1.934038 
-0.050290 27.920692 -16.930408 -0.400732 -2.363222 0.051767 0.317467 22.655937 -1.538304 -5.426284 -12.708335 -9.557402 -0.000000 -0.000003 6.201172 0.616506 -3.681426 -11.395855 -6.738069 -0.391633 -2.133720 -62.680557 20.459843 -13.534499 -0.173870 8.599980 -46.832348 39.542393 39.738289 -27.708654 13.851142 -9.131917 -3.191076 62.109058 22.517662 9.563288 3.369318 13.551257 65.131958 -43.334305 30.085882 25.102791 47.291363 -80.291817 46.932373 -165.713730 81.333832 157.160278 3.249428 -12.668591 2.561933 -51.578991 -78.753998 -52.627819 168.596802 81.574753 -160.249969 -4.192038 -12.847366 -2.071938 
-0.044713 27.934031 -16.880781 -0.401390 -4.042881 -0.067363 0.539961 22.723703 -1.048343 -2.357598 -9.650179 -8.686837 0.000000 -0.000003 6.054688 0.628667 -6.191037 -9.873606 -7.260608 -0.475825 -2.247647 -64.071304 25.252085 -10.191859 13.939839 14.114571 -53.999039 27.144583 41.688229 -19.692541 17.428982 -10.241947 -3.068151 60.647495 28.288244 13.223968 -3.118285 18.629314 60.375061 -26.342594 30.495817 15.512329 40.435047 -78.985451 39.877201 -167.217758 80.638168 158.665878 3.252008 -13.553786 2.672263 -45.127682 -77.563301 -46.053707 169.507553 80.954933 -161.144302 -4.304080 -13.606050 -1.986219 
-0.037741 27.947060 -16.830484 -0.401957 -5.058494 -0.181926 -0.539961 22.723703 0.364750 -0.323847 -5.663973 -8.322984 -0.000000 -0.000002 5.996094 0.738350 -7.265028 -9.174058 -7.361836 -0.509280 -2.402140 -64.845337 27.492451 -8.660015 21.115585 15.658249 -57.552803 20.199347 41.808975 -15.352130 18.874208 -10.761086 -3.560463 59.403751 30.936907 15.052596 -5.864751 22.096022 50.150169 13.664177 56.336655 5.297222 37.085632 -78.125572 36.397652 -168.374603 80.246979 159.735596 3.182407 -14.044655 2.889002 -41.652184 -76.768555 -42.517761 171.218018 80.555931 -162.795029 -4.197055 -14.157897 -1.926011 
-0.037741 27.947060 -16.830484 -0.401957 -5.058494 -0.181926 -0.338969 22.792608 0.355926 -0.480855 -5.654093 -8.338391 -0.000000 -0.000002 5.996094 0.945211 -7.323235 -9.156851 -7.361836 -0.509280 -2.402140 -64.845337 27.492451 -8.660015 21.115585 15.658249 -57.552803 20.199347 41.808975 -15.352130 18.874208 -10.761086 -3.560463 59.403751 30.936907 15.052596 -5.864751 22.096022 50.150169 13.664177 56.336655 5.297222 37.085632 -78.125572 36.397652 -168.686874 80.430977 160.052979 3.032952 -13.873364 2.977526 -41.652184 -76.768555 -42.517761 171.306396 80.459496 -162.873413 -4.205898 -14.376981 -1.880984 
-0.037741 27.947060 -16.830484 -0.401957 -5.058494 -0.181926 -0.148374 22.861258 0.350613 -0.628055 -5.653956 -8.362659 -0.000000 -0.000002 5.996094 1.152127 -7.381338 -9.129114 -7.361836 -0.509280 -2.402140 -64.845337 27.492451 -8.660015 21.115585 15.658249 -57.552803 20.199347 41.808975 -15.352130 18.874208 -10.761086 -3.560463 59.403751 30.936907 15.052596 -5.864751 22.096022 50.150169 13.664177 56.336655 5.297222 37.085632 -78.125572 36.397652 -169.088287 80.551521 160.348114 2.957886 -13.677215 3.098772 -41.652184 -76.768555 -42.517761 171.335251 80.361504 -162.881989 -4.296134 -14.460169 -1.840544 
-0.037741 27.947060 -16.830484 -0.401957 -5.058494 -0.181926 0.053017 22.929676 0.340680 -0.785069 -5.653766 -8.378262 -0.000000 -0.000002 5.996094 1.368917 -7.429547 -9.100067 -7.361836 -0.509280 -2.402140 -64.845337 27.492451 -8.660015 21.115585 15.658249 -57.552803 20.199347 41.808975 -15.352130 18.874208 -10.761086 -3.560463 59.403751 30.936907 15.052596 -5.864751 22.096022 50.150169 13.664177 56.336655 5.297222 36.306362 -78.421799 35.600594 -169.620880 80.515640 161.044266 2.735885 -13.613196 3.347266 -41.652184 -76.768555 -42.517761 171.593201 80.268875 -163.179749 -4.215215 -14.658825 -1.713863 
-0.037741 27.947060 -16.830484 -0.401957 -5.058494 -0.181926 0.244002 22.997856 0.334355 -0.942082 -5.653536 -8.393597 -0.000000 -0.000002 5.996094 1.575941 -7.487434 -9.071629 -7.361836 -0.509280 -2.402140 -64.845337 27.492451 -8.660015 21.115585 15.658249 -57.552803 20.199347 41.808975 -15.352130 18.874208 -10.761086 -3.560463 59.403751 30.936907 15.052596 -5.864751 22.096022 50.150169 13.664177 56.336655 5.297222 36.009609 -78.522423 35.322758 -170.282593 80.457191 161.504898 2.729130 -13.576627 3.711557 -40.897823 -76.837173 -41.746044 171.445084 80.304840 -163.005676 -4.277788 -14.716860 -1.863519 
-0.037741 27.947060 -16.830484 -0.401957 -5.058494 -0.181926 0.445795 23.065783 0.323457 -1.089264 -5.643512 -8.408095 -0.000000 -0.000002 5.996094 1.782981 -7.535454 -9.052915 -7.361836 -0.509280 -2.402140 -64.845337 27.492451 -8.660015 21.115585 15.658249 -57.552803 20.199347 41.808975 -15.352130 18.874208 -10.761086 -3.560463 59.403751 30.936907 15.052596 -5.864751 22.096022 50.150169 13.664177 56.336655 5.297222 35.266880 -78.516159 34.614235 -171.041855 80.537453 162.422699 2.580967 -13.610241 3.755114 -40.515675 -76.870552 -41.360012 172.528778 80.418785 -164.064957 -4.088162 -14.729333 -1.903263 
-0.037741 27.947060 -16.830484 -0.401957 -5.058494 -0.181926 0.647792 23.133440 0.311896 -1.246275 -5.643202 -8.433117 -0.000000 -0.000002 5.996094 1.999965 -7.593082 -9.022735 -7.361836 -0.509280 -2.402140 -64.845337 27.492451 -8.660015 21.115585 15.658249 -57.552803 20.199347 41.808975 -15.352130 18.874208 -10.761086 -3.560463 59.403751 30.936907 15.052596 -5.864751 22.096022 50.150169 13.664177 56.336655 5.297222 34.946606 -78.630135 34.312023 -171.672012 80.572411 162.919601 2.508348 -13.506287 4.069499 -40.242481 -76.887527 -41.124783 172.477905 80.407730 -164.002808 -4.107569 -14.808578 -1.901838 
-0.037741 27.947060 -16.830484 -0.401957 -5.058494 -0.181926 0.839307 23.191130 0.304225 -1.403285 -5.642847 -8.448590 -0.000000 -0.000002 5.996094 2.207157 -7.650638 -8.993124 -7.361836 -0.509280 -2.402140 -64.845337 27.492451 -8.660015 21.115585 15.658249 -57.552803 20.199347 41.808975 -15.352130 18.874208 -10.761086 -3.560463 59.403751 30.936907 15.052596 -5.864751 22.096022 50.150169 13.664177 56.336655 5.297222 34.508247 -78.712448 33.879730 -172.117218 80.614136 163.411285 2.394489 -13.424043 4.212173 -40.139034 -76.966591 -41.015579 172.631073 80.361603 -164.181000 -4.083956 -14.871321 -1.893921 
-0.037741 27.947060 -16.830484 -0.401957 -5.058494 -0.181926 1.041693 23.258282 0.291746 -1.550483 -5.642474 -8.463026 -0.000000 -0.000002 5.996094 2.414351 -7.698319 -8.973267 -7.361836 -0.509280 -2.402140 -64.845337 27.492451 -8.660015 21.115585 15.658249 -57.552803 20.199347 41.808975 -15.352130 18.874208 -10.761086 -3.560463 59.403751 30.936907 15.052596 -5.864751 22.096022 50.150169 13.664177 56.336655 5.297222 33.846924 -78.712448 33.255222 -173.002258 80.641800 164.221817 2.333684 -13.486544 4.500443 -40.015991 -76.978958 -40.907242 172.645737 80.420937 -164.211960 -4.099297 -14.851616 -1.782054 
-0.037741 27.947060 -16.830484 -0.401957 -5.058494 -0.181926 1.244284 23.325163 0.288707 -1.707493 -5.632276 -8.478328 -0.000000 -0.000002 5.996094 2.631510 -7.755584 -8.941515 -7.361836 -0.509280 -2.402140 -64.845337 27.492451 -8.660015 21.115585 15.658249 -57.552803 20.199347 41.808975 -15.352130 18.874208 -10.761086 -3.560463 59.403751 30.936907 15.052596 -5.864751 22.096022 50.150169 13.664177 56.336655 5.297222 33.565083 -78.806915 32.956062 -173.439545 80.625542 164.604706 2.349561 -13.388475 4.729111 -39.782661 -77.007347 -40.637493 173.584915 80.429825 -165.066193 -3.951120 -14.973497 -1.865418 
-0.037741 27.947060 -16.830484 -0.401957 -5.058494 -0.181926 1.436440 23.391880 0.279441 -1.854689 -5.631832 -8.502564 -0.000000 -0.000002 5.996094 2.838806 -7.803032 -8.911144 -7.361836 -0.509280 -2.402140 -64.845337 27.492451 -8.660015 21.115585 15.658249 -57.552803 20.199347 41.808975 -15.352130 18.874208 -10.761086 -3.560463 59.403751 30.936907 15.052596 -5.864751 22.096022 50.150169 13.664177 56.336655 5.297222 33.211773 -78.898903 32.583443 -173.835907 80.658600 164.912628 2.393960 -13.289294 4.997980 -39.749142 -77.091125 -40.657413 173.781281 80.492104 -165.318771 -3.997271 -14.907651 -1.776470 
-0.037741 27.947060 -16.830484 -0.401957 -5.058494 -0.181926 1.255011 23.334839 0.284068 -1.717306 -5.632250 -8.479289 -0.000000 -0.000002 5.996094 2.651221 -7.755465 -8.938854 -7.361836 -0.509280 -2.402140 -64.845337 27.492451 -8.660015 21.115585 15.658249 -57.552803 20.199347 41.808975 -15.352130 18.874208 -10.761086 -3.560463 59.403751 30.936907 15.052596 -5.864751 22.096022 50.150169 13.664177 56.336655 5.297222 33.646191 -78.847557 33.001820 -173.229355 80.578316 164.453934 2.292375 -13.397363 4.629524 -39.944782 -77.052063 -40.813034 173.545883 80.487663 -165.042297 -3.945307 -14.909821 -1.833531 
-0.037741 27.947060 -16.830484 -0.401957 -5.058494 -0.181926 1.073738 23.277599 0.298455 -1.579922 -5.642396 -8.466191 -0.000000 -0.000002 5.996094 2.453825 -7.707855 -8.967564 -7.361836 -0.509280 -2.402140 -64.845337 27.492451 -8.660015 21.115585 15.658249 -57.552803 20.199347 41.808975 -15.352130 18.874208 -10.761086 -3.560463 59.403751 30.936907 15.052596 -5.864751 22.096022 50.150169 13.664177 56.336655 5.297222 33.851925 -78.748901 33.260323 -173.086731 80.611748 164.380310 2.315776 -13.446609 4.402998 -39.990803 -76.971924 -40.872131 173.637100 80.440659 -165.129608 -4.002519 -14.983989 -1.848426 
